<?xml version="1.0" encoding="UTF-8" standalone="no"?>
<!DOCTYPE svg PUBLIC "-//W3C//DTD SVG 1.1//EN"
 "http://www.w3.org/Graphics/SVG/1.1/DTD/svg11.dtd">
<!-- Generated by graphviz version 5.0.0 (20220707.1540)
 -->
<!-- Title: dependencies Pages: 1 -->
<svg width="320pt" height="174pt"
 viewBox="0.00 0.00 320.00 173.80" xmlns="http://www.w3.org/2000/svg" xmlns:xlink="http://www.w3.org/1999/xlink">
<g id="graph0" class="graph" transform="scale(1 1) rotate(0) translate(4 169.8)">
<title>dependencies</title>
<polygon fill="white" stroke="transparent" points="-4,4 -4,-169.8 316,-169.8 316,4 -4,4"/>
<text text-anchor="middle" x="156" y="-8.2" font-family="sans-serif" font-size="14.00">dependencies</text>
<g id="clust1" class="cluster">
<title>cluster_OrderPageModule</title>
<polygon fill="none" stroke="black" stroke-dasharray="1,5" points="8,-32.8 8,-157.8 304,-157.8 304,-32.8 8,-32.8"/>
</g>
<g id="clust2" class="cluster">
<title>cluster_OrderPageModule_declarations</title>
<polygon fill="none" stroke="black" points="204,-40.8 204,-92.8 296,-92.8 296,-40.8 204,-40.8"/>
</g>
<g id="clust4" class="cluster">
<title>cluster_OrderPageModule_imports</title>
<polygon fill="none" stroke="black" points="16,-40.8 16,-92.8 196,-92.8 196,-40.8 16,-40.8"/>
</g>
<!-- OrderPage -->
<g id="node1" class="node">
<title>OrderPage</title>
<polygon fill="#ffffb3" stroke="black" points="287.86,-84.8 212.14,-84.8 212.14,-48.8 287.86,-48.8 287.86,-84.8"/>
<text text-anchor="middle" x="250" y="-62.6" font-family="Times,serif" font-size="14.00">OrderPage</text>
</g>
<!-- OrderPageModule -->
<g id="node2" class="node">
<title>OrderPageModule</title>
<polygon fill="#8dd3c7" stroke="black" points="230.91,-149.8 227.91,-153.8 206.91,-153.8 203.91,-149.8 111.09,-149.8 111.09,-113.8 230.91,-113.8 230.91,-149.8"/>
<text text-anchor="middle" x="171" y="-127.6" font-family="Times,serif" font-size="14.00">OrderPageModule</text>
</g>
<!-- OrderPage&#45;&gt;OrderPageModule -->
<g id="edge1" class="edge">
<title>OrderPage&#45;&gt;OrderPageModule</title>
<path fill="none" stroke="black" d="M221.39,-84.91C221.39,-84.91 221.39,-103.79 221.39,-103.79"/>
<polygon fill="black" stroke="black" points="217.89,-103.79 221.39,-113.79 224.89,-103.79 217.89,-103.79"/>
</g>
<!-- OrderPageRoutingModule -->
<g id="node3" class="node">
<title>OrderPageRoutingModule</title>
<polygon fill="#8dd3c7" stroke="black" points="188.03,-84.8 185.03,-88.8 164.03,-88.8 161.03,-84.8 23.97,-84.8 23.97,-48.8 188.03,-48.8 188.03,-84.8"/>
<text text-anchor="middle" x="106" y="-62.6" font-family="Times,serif" font-size="14.00">OrderPageRoutingModule</text>
</g>
<!-- OrderPageRoutingModule&#45;&gt;OrderPageModule -->
<g id="edge2" class="edge">
<title>OrderPageRoutingModule&#45;&gt;OrderPageModule</title>
<path fill="none" stroke="black" d="M149.78,-84.91C149.78,-84.91 149.78,-103.79 149.78,-103.79"/>
<polygon fill="black" stroke="black" points="146.28,-103.79 149.78,-113.79 153.28,-103.79 146.28,-103.79"/>
</g>
</g>
</svg>
