<?xml version="1.0" encoding="UTF-8" standalone="no"?>
<!DOCTYPE svg PUBLIC "-//W3C//DTD SVG 1.1//EN"
 "http://www.w3.org/Graphics/SVG/1.1/DTD/svg11.dtd">
<!-- Generated by graphviz version 5.0.0 (20220707.1540)
 -->
<!-- Title: dependencies Pages: 1 -->
<svg width="2510pt" height="247pt"
 viewBox="0.00 0.00 2510.00 246.80" xmlns="http://www.w3.org/2000/svg" xmlns:xlink="http://www.w3.org/1999/xlink">
<g id="graph0" class="graph" transform="scale(1 1) rotate(0) translate(4 242.8)">
<title>dependencies</title>
<polygon fill="white" stroke="transparent" points="-4,4 -4,-242.8 2506,-242.8 2506,4 -4,4"/>
<text text-anchor="middle" x="1251" y="-8.2" font-family="sans-serif" font-size="14.00">dependencies</text>
<g id="clust1" class="cluster">
<title>cluster_AppModule</title>
<polygon fill="none" stroke="black" stroke-dasharray="1,5" points="8,-32.8 8,-230.8 466,-230.8 466,-32.8 8,-32.8"/>
</g>
<g id="clust2" class="cluster">
<title>cluster_AppModule_declarations</title>
<polygon fill="none" stroke="black" points="168,-40.8 168,-92.8 458,-92.8 458,-40.8 168,-40.8"/>
</g>
<g id="clust5" class="cluster">
<title>cluster_AppModule_imports</title>
<polygon fill="none" stroke="black" points="16,-40.8 16,-92.8 160,-92.8 160,-40.8 16,-40.8"/>
</g>
<g id="clust7" class="cluster">
<title>cluster_AppModule_bootstrap</title>
<polygon fill="none" stroke="black" points="189,-170.8 189,-222.8 313,-222.8 313,-170.8 189,-170.8"/>
</g>
<g id="clust15" class="cluster">
<title>cluster_ForgotPasswordPageModule</title>
<polygon fill="none" stroke="black" stroke-dasharray="1,5" points="474,-32.8 474,-157.8 886,-157.8 886,-32.8 474,-32.8"/>
</g>
<g id="clust16" class="cluster">
<title>cluster_ForgotPasswordPageModule_declarations</title>
<polygon fill="none" stroke="black" points="728,-40.8 728,-92.8 878,-92.8 878,-40.8 728,-40.8"/>
</g>
<g id="clust18" class="cluster">
<title>cluster_ForgotPasswordPageModule_imports</title>
<polygon fill="none" stroke="black" points="482,-40.8 482,-92.8 720,-92.8 720,-40.8 482,-40.8"/>
</g>
<g id="clust28" class="cluster">
<title>cluster_HomePageModule</title>
<polygon fill="none" stroke="black" stroke-dasharray="1,5" points="894,-32.8 894,-157.8 1194,-157.8 1194,-32.8 894,-32.8"/>
</g>
<g id="clust29" class="cluster">
<title>cluster_HomePageModule_declarations</title>
<polygon fill="none" stroke="black" points="1092,-40.8 1092,-92.8 1186,-92.8 1186,-40.8 1092,-40.8"/>
</g>
<g id="clust31" class="cluster">
<title>cluster_HomePageModule_imports</title>
<polygon fill="none" stroke="black" points="902,-40.8 902,-92.8 1084,-92.8 1084,-40.8 902,-40.8"/>
</g>
<g id="clust41" class="cluster">
<title>cluster_LoginPageModule</title>
<polygon fill="none" stroke="black" stroke-dasharray="1,5" points="1202,-32.8 1202,-157.8 1500,-157.8 1500,-32.8 1202,-32.8"/>
</g>
<g id="clust42" class="cluster">
<title>cluster_LoginPageModule_declarations</title>
<polygon fill="none" stroke="black" points="1400,-40.8 1400,-92.8 1492,-92.8 1492,-40.8 1400,-40.8"/>
</g>
<g id="clust44" class="cluster">
<title>cluster_LoginPageModule_imports</title>
<polygon fill="none" stroke="black" points="1210,-40.8 1210,-92.8 1392,-92.8 1392,-40.8 1210,-40.8"/>
</g>
<g id="clust54" class="cluster">
<title>cluster_OrderDetailPageModule</title>
<polygon fill="none" stroke="black" stroke-dasharray="1,5" points="1508,-32.8 1508,-157.8 1872,-157.8 1872,-32.8 1508,-32.8"/>
</g>
<g id="clust55" class="cluster">
<title>cluster_OrderDetailPageModule_declarations</title>
<polygon fill="none" stroke="black" points="1738,-40.8 1738,-92.8 1864,-92.8 1864,-40.8 1738,-40.8"/>
</g>
<g id="clust57" class="cluster">
<title>cluster_OrderDetailPageModule_imports</title>
<polygon fill="none" stroke="black" points="1516,-40.8 1516,-92.8 1730,-92.8 1730,-40.8 1516,-40.8"/>
</g>
<g id="clust67" class="cluster">
<title>cluster_OrderPageModule</title>
<polygon fill="none" stroke="black" stroke-dasharray="1,5" points="1880,-32.8 1880,-157.8 2176,-157.8 2176,-32.8 1880,-32.8"/>
</g>
<g id="clust68" class="cluster">
<title>cluster_OrderPageModule_declarations</title>
<polygon fill="none" stroke="black" points="2076,-40.8 2076,-92.8 2168,-92.8 2168,-40.8 2076,-40.8"/>
</g>
<g id="clust70" class="cluster">
<title>cluster_OrderPageModule_imports</title>
<polygon fill="none" stroke="black" points="1888,-40.8 1888,-92.8 2068,-92.8 2068,-40.8 1888,-40.8"/>
</g>
<g id="clust80" class="cluster">
<title>cluster_SignupPageModule</title>
<polygon fill="none" stroke="black" stroke-dasharray="1,5" points="2184,-32.8 2184,-157.8 2494,-157.8 2494,-32.8 2184,-32.8"/>
</g>
<g id="clust81" class="cluster">
<title>cluster_SignupPageModule_declarations</title>
<polygon fill="none" stroke="black" points="2388,-40.8 2388,-92.8 2486,-92.8 2486,-40.8 2388,-40.8"/>
</g>
<g id="clust83" class="cluster">
<title>cluster_SignupPageModule_imports</title>
<polygon fill="none" stroke="black" points="2192,-40.8 2192,-92.8 2380,-92.8 2380,-40.8 2192,-40.8"/>
</g>
<!-- AppComponent -->
<g id="node1" class="node">
<title>AppComponent</title>
<polygon fill="#ffffb3" stroke="black" points="449.94,-84.8 344.06,-84.8 344.06,-48.8 449.94,-48.8 449.94,-84.8"/>
<text text-anchor="middle" x="397" y="-62.6" font-family="Times,serif" font-size="14.00">AppComponent</text>
</g>
<!-- AppModule -->
<g id="node3" class="node">
<title>AppModule</title>
<polygon fill="#8dd3c7" stroke="black" points="292.66,-149.8 289.66,-153.8 268.66,-153.8 265.66,-149.8 209.34,-149.8 209.34,-113.8 292.66,-113.8 292.66,-149.8"/>
<text text-anchor="middle" x="251" y="-127.6" font-family="Times,serif" font-size="14.00">AppModule</text>
</g>
<!-- AppComponent&#45;&gt;AppModule -->
<g id="edge1" class="edge">
<title>AppComponent&#45;&gt;AppModule</title>
<path fill="none" stroke="black" d="M397,-84.91C397,-104.14 397,-131.8 397,-131.8 397,-131.8 302.84,-131.8 302.84,-131.8"/>
<polygon fill="black" stroke="black" points="302.84,-128.3 292.84,-131.8 302.84,-135.3 302.84,-128.3"/>
</g>
<!-- OrderModalComponent -->
<g id="node2" class="node">
<title>OrderModalComponent</title>
<polygon fill="#ffffb3" stroke="black" points="326.03,-84.8 175.97,-84.8 175.97,-48.8 326.03,-48.8 326.03,-84.8"/>
<text text-anchor="middle" x="251" y="-62.6" font-family="Times,serif" font-size="14.00">OrderModalComponent</text>
</g>
<!-- OrderModalComponent&#45;&gt;AppModule -->
<g id="edge2" class="edge">
<title>OrderModalComponent&#45;&gt;AppModule</title>
<path fill="none" stroke="black" d="M251,-84.91C251,-84.91 251,-103.79 251,-103.79"/>
<polygon fill="black" stroke="black" points="247.5,-103.79 251,-113.79 254.5,-103.79 247.5,-103.79"/>
</g>
<!-- AppComponent  -->
<g id="node5" class="node">
<title>AppComponent </title>
<polygon fill="#80b1d3" stroke="black" points="305.44,-214.8 196.56,-214.8 196.56,-178.8 305.44,-178.8 305.44,-214.8"/>
<text text-anchor="middle" x="251" y="-192.6" font-family="Times,serif" font-size="14.00">AppComponent </text>
</g>
<!-- AppModule&#45;&gt;AppComponent  -->
<g id="edge4" class="edge">
<title>AppModule&#45;&gt;AppComponent </title>
<path fill="none" stroke="black" stroke-dasharray="1,5" d="M251,-149.91C251,-149.91 251,-168.79 251,-168.79"/>
<polygon fill="black" stroke="black" points="247.5,-168.79 251,-178.79 254.5,-168.79 247.5,-168.79"/>
</g>
<!-- AppRoutingModule -->
<g id="node4" class="node">
<title>AppRoutingModule</title>
<polygon fill="#8dd3c7" stroke="black" points="152.28,-84.8 149.28,-88.8 128.28,-88.8 125.28,-84.8 23.72,-84.8 23.72,-48.8 152.28,-48.8 152.28,-84.8"/>
<text text-anchor="middle" x="88" y="-62.6" font-family="Times,serif" font-size="14.00">AppRoutingModule</text>
</g>
<!-- AppRoutingModule&#45;&gt;AppModule -->
<g id="edge3" class="edge">
<title>AppRoutingModule&#45;&gt;AppModule</title>
<path fill="none" stroke="black" d="M88,-84.91C88,-104.14 88,-131.8 88,-131.8 88,-131.8 199.02,-131.8 199.02,-131.8"/>
<polygon fill="black" stroke="black" points="199.02,-135.3 209.02,-131.8 199.02,-128.3 199.02,-135.3"/>
</g>
<!-- ForgotPasswordPage -->
<g id="node6" class="node">
<title>ForgotPasswordPage</title>
<polygon fill="#ffffb3" stroke="black" points="870.22,-84.8 735.78,-84.8 735.78,-48.8 870.22,-48.8 870.22,-84.8"/>
<text text-anchor="middle" x="803" y="-62.6" font-family="Times,serif" font-size="14.00">ForgotPasswordPage</text>
</g>
<!-- ForgotPasswordPageModule -->
<g id="node7" class="node">
<title>ForgotPasswordPageModule</title>
<polygon fill="#8dd3c7" stroke="black" points="783.77,-149.8 780.77,-153.8 759.77,-153.8 756.77,-149.8 606.23,-149.8 606.23,-113.8 783.77,-113.8 783.77,-149.8"/>
<text text-anchor="middle" x="695" y="-127.6" font-family="Times,serif" font-size="14.00">ForgotPasswordPageModule</text>
</g>
<!-- ForgotPasswordPage&#45;&gt;ForgotPasswordPageModule -->
<g id="edge5" class="edge">
<title>ForgotPasswordPage&#45;&gt;ForgotPasswordPageModule</title>
<path fill="none" stroke="black" d="M759.89,-84.91C759.89,-84.91 759.89,-103.79 759.89,-103.79"/>
<polygon fill="black" stroke="black" points="756.39,-103.79 759.89,-113.79 763.39,-103.79 756.39,-103.79"/>
</g>
<!-- ForgotPasswordPageRoutingModule -->
<g id="node8" class="node">
<title>ForgotPasswordPageRoutingModule</title>
<polygon fill="#8dd3c7" stroke="black" points="712.39,-84.8 709.39,-88.8 688.39,-88.8 685.39,-84.8 489.61,-84.8 489.61,-48.8 712.39,-48.8 712.39,-84.8"/>
<text text-anchor="middle" x="601" y="-62.6" font-family="Times,serif" font-size="14.00">ForgotPasswordPageRoutingModule</text>
</g>
<!-- ForgotPasswordPageRoutingModule&#45;&gt;ForgotPasswordPageModule -->
<g id="edge6" class="edge">
<title>ForgotPasswordPageRoutingModule&#45;&gt;ForgotPasswordPageModule</title>
<path fill="none" stroke="black" d="M659.28,-84.91C659.28,-84.91 659.28,-103.79 659.28,-103.79"/>
<polygon fill="black" stroke="black" points="655.78,-103.79 659.28,-113.79 662.78,-103.79 655.78,-103.79"/>
</g>
<!-- HomePage -->
<g id="node9" class="node">
<title>HomePage</title>
<polygon fill="#ffffb3" stroke="black" points="1177.93,-84.8 1100.07,-84.8 1100.07,-48.8 1177.93,-48.8 1177.93,-84.8"/>
<text text-anchor="middle" x="1139" y="-62.6" font-family="Times,serif" font-size="14.00">HomePage</text>
</g>
<!-- HomePageModule -->
<g id="node10" class="node">
<title>HomePageModule</title>
<polygon fill="#8dd3c7" stroke="black" points="1119.48,-149.8 1116.48,-153.8 1095.48,-153.8 1092.48,-149.8 998.52,-149.8 998.52,-113.8 1119.48,-113.8 1119.48,-149.8"/>
<text text-anchor="middle" x="1059" y="-127.6" font-family="Times,serif" font-size="14.00">HomePageModule</text>
</g>
<!-- HomePage&#45;&gt;HomePageModule -->
<g id="edge7" class="edge">
<title>HomePage&#45;&gt;HomePageModule</title>
<path fill="none" stroke="black" d="M1109.89,-84.91C1109.89,-84.91 1109.89,-103.79 1109.89,-103.79"/>
<polygon fill="black" stroke="black" points="1106.39,-103.79 1109.89,-113.79 1113.39,-103.79 1106.39,-103.79"/>
</g>
<!-- HomePageRoutingModule -->
<g id="node11" class="node">
<title>HomePageRoutingModule</title>
<polygon fill="#8dd3c7" stroke="black" points="1076.1,-84.8 1073.1,-88.8 1052.1,-88.8 1049.1,-84.8 909.9,-84.8 909.9,-48.8 1076.1,-48.8 1076.1,-84.8"/>
<text text-anchor="middle" x="993" y="-62.6" font-family="Times,serif" font-size="14.00">HomePageRoutingModule</text>
</g>
<!-- HomePageRoutingModule&#45;&gt;HomePageModule -->
<g id="edge8" class="edge">
<title>HomePageRoutingModule&#45;&gt;HomePageModule</title>
<path fill="none" stroke="black" d="M1037.28,-84.91C1037.28,-84.91 1037.28,-103.79 1037.28,-103.79"/>
<polygon fill="black" stroke="black" points="1033.78,-103.79 1037.28,-113.79 1040.78,-103.79 1033.78,-103.79"/>
</g>
<!-- LoginPage -->
<g id="node12" class="node">
<title>LoginPage</title>
<polygon fill="#ffffb3" stroke="black" points="1484.16,-84.8 1407.84,-84.8 1407.84,-48.8 1484.16,-48.8 1484.16,-84.8"/>
<text text-anchor="middle" x="1446" y="-62.6" font-family="Times,serif" font-size="14.00">LoginPage</text>
</g>
<!-- LoginPageModule -->
<g id="node13" class="node">
<title>LoginPageModule</title>
<polygon fill="#8dd3c7" stroke="black" points="1426.21,-149.8 1423.21,-153.8 1402.21,-153.8 1399.21,-149.8 1305.79,-149.8 1305.79,-113.8 1426.21,-113.8 1426.21,-149.8"/>
<text text-anchor="middle" x="1366" y="-127.6" font-family="Times,serif" font-size="14.00">LoginPageModule</text>
</g>
<!-- LoginPage&#45;&gt;LoginPageModule -->
<g id="edge9" class="edge">
<title>LoginPage&#45;&gt;LoginPageModule</title>
<path fill="none" stroke="black" d="M1416.89,-84.91C1416.89,-84.91 1416.89,-103.79 1416.89,-103.79"/>
<polygon fill="black" stroke="black" points="1413.39,-103.79 1416.89,-113.79 1420.39,-103.79 1413.39,-103.79"/>
</g>
<!-- LoginPageRoutingModule -->
<g id="node14" class="node">
<title>LoginPageRoutingModule</title>
<polygon fill="#8dd3c7" stroke="black" points="1383.82,-84.8 1380.82,-88.8 1359.82,-88.8 1356.82,-84.8 1218.18,-84.8 1218.18,-48.8 1383.82,-48.8 1383.82,-84.8"/>
<text text-anchor="middle" x="1301" y="-62.6" font-family="Times,serif" font-size="14.00">LoginPageRoutingModule</text>
</g>
<!-- LoginPageRoutingModule&#45;&gt;LoginPageModule -->
<g id="edge10" class="edge">
<title>LoginPageRoutingModule&#45;&gt;LoginPageModule</title>
<path fill="none" stroke="black" d="M1344.78,-84.91C1344.78,-84.91 1344.78,-103.79 1344.78,-103.79"/>
<polygon fill="black" stroke="black" points="1341.28,-103.79 1344.78,-113.79 1348.28,-103.79 1341.28,-103.79"/>
</g>
<!-- OrderDetailPage -->
<g id="node15" class="node">
<title>OrderDetailPage</title>
<polygon fill="#ffffb3" stroke="black" points="1856.07,-84.8 1745.93,-84.8 1745.93,-48.8 1856.07,-48.8 1856.07,-84.8"/>
<text text-anchor="middle" x="1801" y="-62.6" font-family="Times,serif" font-size="14.00">OrderDetailPage</text>
</g>
<!-- OrderDetailPageModule -->
<g id="node16" class="node">
<title>OrderDetailPageModule</title>
<polygon fill="#8dd3c7" stroke="black" points="1781.62,-149.8 1778.62,-153.8 1757.62,-153.8 1754.62,-149.8 1628.38,-149.8 1628.38,-113.8 1781.62,-113.8 1781.62,-149.8"/>
<text text-anchor="middle" x="1705" y="-127.6" font-family="Times,serif" font-size="14.00">OrderDetailPageModule</text>
</g>
<!-- OrderDetailPage&#45;&gt;OrderDetailPageModule -->
<g id="edge11" class="edge">
<title>OrderDetailPage&#45;&gt;OrderDetailPageModule</title>
<path fill="none" stroke="black" d="M1763.89,-84.91C1763.89,-84.91 1763.89,-103.79 1763.89,-103.79"/>
<polygon fill="black" stroke="black" points="1760.39,-103.79 1763.89,-113.79 1767.39,-103.79 1760.39,-103.79"/>
</g>
<!-- OrderDetailPageRoutingModule -->
<g id="node17" class="node">
<title>OrderDetailPageRoutingModule</title>
<polygon fill="#8dd3c7" stroke="black" points="1722.24,-84.8 1719.24,-88.8 1698.24,-88.8 1695.24,-84.8 1523.76,-84.8 1523.76,-48.8 1722.24,-48.8 1722.24,-84.8"/>
<text text-anchor="middle" x="1623" y="-62.6" font-family="Times,serif" font-size="14.00">OrderDetailPageRoutingModule</text>
</g>
<!-- OrderDetailPageRoutingModule&#45;&gt;OrderDetailPageModule -->
<g id="edge12" class="edge">
<title>OrderDetailPageRoutingModule&#45;&gt;OrderDetailPageModule</title>
<path fill="none" stroke="black" d="M1675.28,-84.91C1675.28,-84.91 1675.28,-103.79 1675.28,-103.79"/>
<polygon fill="black" stroke="black" points="1671.78,-103.79 1675.28,-113.79 1678.78,-103.79 1671.78,-103.79"/>
</g>
<!-- OrderPage -->
<g id="node18" class="node">
<title>OrderPage</title>
<polygon fill="#ffffb3" stroke="black" points="2159.86,-84.8 2084.14,-84.8 2084.14,-48.8 2159.86,-48.8 2159.86,-84.8"/>
<text text-anchor="middle" x="2122" y="-62.6" font-family="Times,serif" font-size="14.00">OrderPage</text>
</g>
<!-- OrderPageModule -->
<g id="node19" class="node">
<title>OrderPageModule</title>
<polygon fill="#8dd3c7" stroke="black" points="2102.91,-149.8 2099.91,-153.8 2078.91,-153.8 2075.91,-149.8 1983.09,-149.8 1983.09,-113.8 2102.91,-113.8 2102.91,-149.8"/>
<text text-anchor="middle" x="2043" y="-127.6" font-family="Times,serif" font-size="14.00">OrderPageModule</text>
</g>
<!-- OrderPage&#45;&gt;OrderPageModule -->
<g id="edge13" class="edge">
<title>OrderPage&#45;&gt;OrderPageModule</title>
<path fill="none" stroke="black" d="M2093.39,-84.91C2093.39,-84.91 2093.39,-103.79 2093.39,-103.79"/>
<polygon fill="black" stroke="black" points="2089.89,-103.79 2093.39,-113.79 2096.89,-103.79 2089.89,-103.79"/>
</g>
<!-- OrderPageRoutingModule -->
<g id="node20" class="node">
<title>OrderPageRoutingModule</title>
<polygon fill="#8dd3c7" stroke="black" points="2060.03,-84.8 2057.03,-88.8 2036.03,-88.8 2033.03,-84.8 1895.97,-84.8 1895.97,-48.8 2060.03,-48.8 2060.03,-84.8"/>
<text text-anchor="middle" x="1978" y="-62.6" font-family="Times,serif" font-size="14.00">OrderPageRoutingModule</text>
</g>
<!-- OrderPageRoutingModule&#45;&gt;OrderPageModule -->
<g id="edge14" class="edge">
<title>OrderPageRoutingModule&#45;&gt;OrderPageModule</title>
<path fill="none" stroke="black" d="M2021.78,-84.91C2021.78,-84.91 2021.78,-103.79 2021.78,-103.79"/>
<polygon fill="black" stroke="black" points="2018.28,-103.79 2021.78,-113.79 2025.28,-103.79 2018.28,-103.79"/>
</g>
<!-- SignupPage -->
<g id="node21" class="node">
<title>SignupPage</title>
<polygon fill="#ffffb3" stroke="black" points="2478.39,-84.8 2395.61,-84.8 2395.61,-48.8 2478.39,-48.8 2478.39,-84.8"/>
<text text-anchor="middle" x="2437" y="-62.6" font-family="Times,serif" font-size="14.00">SignupPage</text>
</g>
<!-- SignupPageModule -->
<g id="node22" class="node">
<title>SignupPageModule</title>
<polygon fill="#8dd3c7" stroke="black" points="2417.44,-149.8 2414.44,-153.8 2393.44,-153.8 2390.44,-149.8 2290.56,-149.8 2290.56,-113.8 2417.44,-113.8 2417.44,-149.8"/>
<text text-anchor="middle" x="2354" y="-127.6" font-family="Times,serif" font-size="14.00">SignupPageModule</text>
</g>
<!-- SignupPage&#45;&gt;SignupPageModule -->
<g id="edge15" class="edge">
<title>SignupPage&#45;&gt;SignupPageModule</title>
<path fill="none" stroke="black" d="M2406.39,-84.91C2406.39,-84.91 2406.39,-103.79 2406.39,-103.79"/>
<polygon fill="black" stroke="black" points="2402.89,-103.79 2406.39,-113.79 2409.89,-103.79 2402.89,-103.79"/>
</g>
<!-- SignupPageRoutingModule -->
<g id="node23" class="node">
<title>SignupPageRoutingModule</title>
<polygon fill="#8dd3c7" stroke="black" points="2371.56,-84.8 2368.56,-88.8 2347.56,-88.8 2344.56,-84.8 2200.44,-84.8 2200.44,-48.8 2371.56,-48.8 2371.56,-84.8"/>
<text text-anchor="middle" x="2286" y="-62.6" font-family="Times,serif" font-size="14.00">SignupPageRoutingModule</text>
</g>
<!-- SignupPageRoutingModule&#45;&gt;SignupPageModule -->
<g id="edge16" class="edge">
<title>SignupPageRoutingModule&#45;&gt;SignupPageModule</title>
<path fill="none" stroke="black" d="M2331.28,-84.91C2331.28,-84.91 2331.28,-103.79 2331.28,-103.79"/>
<polygon fill="black" stroke="black" points="2327.78,-103.79 2331.28,-113.79 2334.78,-103.79 2327.78,-103.79"/>
</g>
</g>
</svg>
