<?xml version="1.0" encoding="UTF-8" standalone="no"?>
<!DOCTYPE svg PUBLIC "-//W3C//DTD SVG 1.1//EN"
 "http://www.w3.org/Graphics/SVG/1.1/DTD/svg11.dtd">
<!-- Generated by graphviz version 5.0.0 (20220707.1540)
 -->
<!-- Title: dependencies Pages: 1 -->
<svg width="436pt" height="174pt"
 viewBox="0.00 0.00 436.00 173.80" xmlns="http://www.w3.org/2000/svg" xmlns:xlink="http://www.w3.org/1999/xlink">
<g id="graph0" class="graph" transform="scale(1 1) rotate(0) translate(4 169.8)">
<title>dependencies</title>
<polygon fill="white" stroke="transparent" points="-4,4 -4,-169.8 432,-169.8 432,4 -4,4"/>
<text text-anchor="middle" x="214" y="-8.2" font-family="sans-serif" font-size="14.00">dependencies</text>
<g id="clust1" class="cluster">
<title>cluster_ForgotPasswordPageModule</title>
<polygon fill="none" stroke="black" stroke-dasharray="1,5" points="8,-32.8 8,-157.8 420,-157.8 420,-32.8 8,-32.8"/>
</g>
<g id="clust2" class="cluster">
<title>cluster_ForgotPasswordPageModule_declarations</title>
<polygon fill="none" stroke="black" points="262,-40.8 262,-92.8 412,-92.8 412,-40.8 262,-40.8"/>
</g>
<g id="clust4" class="cluster">
<title>cluster_ForgotPasswordPageModule_imports</title>
<polygon fill="none" stroke="black" points="16,-40.8 16,-92.8 254,-92.8 254,-40.8 16,-40.8"/>
</g>
<!-- ForgotPasswordPage -->
<g id="node1" class="node">
<title>ForgotPasswordPage</title>
<polygon fill="#ffffb3" stroke="black" points="404.22,-84.8 269.78,-84.8 269.78,-48.8 404.22,-48.8 404.22,-84.8"/>
<text text-anchor="middle" x="337" y="-62.6" font-family="Times,serif" font-size="14.00">ForgotPasswordPage</text>
</g>
<!-- ForgotPasswordPageModule -->
<g id="node2" class="node">
<title>ForgotPasswordPageModule</title>
<polygon fill="#8dd3c7" stroke="black" points="317.77,-149.8 314.77,-153.8 293.77,-153.8 290.77,-149.8 140.23,-149.8 140.23,-113.8 317.77,-113.8 317.77,-149.8"/>
<text text-anchor="middle" x="229" y="-127.6" font-family="Times,serif" font-size="14.00">ForgotPasswordPageModule</text>
</g>
<!-- ForgotPasswordPage&#45;&gt;ForgotPasswordPageModule -->
<g id="edge1" class="edge">
<title>ForgotPasswordPage&#45;&gt;ForgotPasswordPageModule</title>
<path fill="none" stroke="black" d="M293.89,-84.91C293.89,-84.91 293.89,-103.79 293.89,-103.79"/>
<polygon fill="black" stroke="black" points="290.39,-103.79 293.89,-113.79 297.39,-103.79 290.39,-103.79"/>
</g>
<!-- ForgotPasswordPageRoutingModule -->
<g id="node3" class="node">
<title>ForgotPasswordPageRoutingModule</title>
<polygon fill="#8dd3c7" stroke="black" points="246.39,-84.8 243.39,-88.8 222.39,-88.8 219.39,-84.8 23.61,-84.8 23.61,-48.8 246.39,-48.8 246.39,-84.8"/>
<text text-anchor="middle" x="135" y="-62.6" font-family="Times,serif" font-size="14.00">ForgotPasswordPageRoutingModule</text>
</g>
<!-- ForgotPasswordPageRoutingModule&#45;&gt;ForgotPasswordPageModule -->
<g id="edge2" class="edge">
<title>ForgotPasswordPageRoutingModule&#45;&gt;ForgotPasswordPageModule</title>
<path fill="none" stroke="black" d="M193.28,-84.91C193.28,-84.91 193.28,-103.79 193.28,-103.79"/>
<polygon fill="black" stroke="black" points="189.78,-103.79 193.28,-113.79 196.78,-103.79 189.78,-103.79"/>
</g>
</g>
</svg>
