<?xml version="1.0" encoding="UTF-8" standalone="no"?>
<!DOCTYPE svg PUBLIC "-//W3C//DTD SVG 1.1//EN"
 "http://www.w3.org/Graphics/SVG/1.1/DTD/svg11.dtd">
<!-- Generated by graphviz version 5.0.0 (20220707.1540)
 -->
<!-- Title: dependencies Pages: 1 -->
<svg width="842pt" height="247pt"
 viewBox="0.00 0.00 842.00 246.80" xmlns="http://www.w3.org/2000/svg" xmlns:xlink="http://www.w3.org/1999/xlink">
<g id="graph0" class="graph" transform="scale(1 1) rotate(0) translate(4 242.8)">
<title>dependencies</title>
<polygon fill="white" stroke="transparent" points="-4,4 -4,-242.8 838,-242.8 838,4 -4,4"/>
<text text-anchor="middle" x="417" y="-8.2" font-family="sans-serif" font-size="14.00">dependencies</text>
<g id="clust1" class="cluster">
<title>cluster_AppModule</title>
<polygon fill="none" stroke="black" stroke-dasharray="1,5" points="8,-32.8 8,-230.8 826,-230.8 826,-32.8 8,-32.8"/>
</g>
<g id="clust7" class="cluster">
<title>cluster_AppModule_imports</title>
<polygon fill="none" stroke="black" points="674,-40.8 674,-92.8 818,-92.8 818,-40.8 674,-40.8"/>
</g>
<g id="clust9" class="cluster">
<title>cluster_AppModule_bootstrap</title>
<polygon fill="none" stroke="black" points="397,-170.8 397,-222.8 521,-222.8 521,-170.8 397,-170.8"/>
</g>
<g id="clust2" class="cluster">
<title>cluster_AppModule_declarations</title>
<polygon fill="none" stroke="black" points="16,-40.8 16,-92.8 666,-92.8 666,-40.8 16,-40.8"/>
</g>
<!-- AppComponent -->
<g id="node1" class="node">
<title>AppComponent</title>
<polygon fill="#ffffb3" stroke="black" points="657.94,-84.8 552.06,-84.8 552.06,-48.8 657.94,-48.8 657.94,-84.8"/>
<text text-anchor="middle" x="605" y="-62.6" font-family="Times,serif" font-size="14.00">AppComponent</text>
</g>
<!-- AppModule -->
<g id="node5" class="node">
<title>AppModule</title>
<polygon fill="#8dd3c7" stroke="black" points="500.66,-149.8 497.66,-153.8 476.66,-153.8 473.66,-149.8 417.34,-149.8 417.34,-113.8 500.66,-113.8 500.66,-149.8"/>
<text text-anchor="middle" x="459" y="-127.6" font-family="Times,serif" font-size="14.00">AppModule</text>
</g>
<!-- AppComponent&#45;&gt;AppModule -->
<g id="edge1" class="edge">
<title>AppComponent&#45;&gt;AppModule</title>
<path fill="none" stroke="black" d="M605,-84.82C605,-102.17 605,-125.8 605,-125.8 605,-125.8 510.84,-125.8 510.84,-125.8"/>
<polygon fill="black" stroke="black" points="510.84,-122.3 500.84,-125.8 510.84,-129.3 510.84,-122.3"/>
</g>
<!-- OrderModalComponent -->
<g id="node2" class="node">
<title>OrderModalComponent</title>
<polygon fill="#ffffb3" stroke="black" points="534.03,-84.8 383.97,-84.8 383.97,-48.8 534.03,-48.8 534.03,-84.8"/>
<text text-anchor="middle" x="459" y="-62.6" font-family="Times,serif" font-size="14.00">OrderModalComponent</text>
</g>
<!-- OrderModalComponent&#45;&gt;AppModule -->
<g id="edge2" class="edge">
<title>OrderModalComponent&#45;&gt;AppModule</title>
<path fill="none" stroke="black" d="M459,-84.91C459,-84.91 459,-103.79 459,-103.79"/>
<polygon fill="black" stroke="black" points="455.5,-103.79 459,-113.79 462.5,-103.79 455.5,-103.79"/>
</g>
<!-- PrivacyModalComponent -->
<g id="node3" class="node">
<title>PrivacyModalComponent</title>
<polygon fill="#ffffb3" stroke="black" points="365.15,-84.8 204.85,-84.8 204.85,-48.8 365.15,-48.8 365.15,-84.8"/>
<text text-anchor="middle" x="285" y="-62.6" font-family="Times,serif" font-size="14.00">PrivacyModalComponent</text>
</g>
<!-- PrivacyModalComponent&#45;&gt;AppModule -->
<g id="edge3" class="edge">
<title>PrivacyModalComponent&#45;&gt;AppModule</title>
<path fill="none" stroke="black" d="M285,-84.82C285,-102.17 285,-125.8 285,-125.8 285,-125.8 407.32,-125.8 407.32,-125.8"/>
<polygon fill="black" stroke="black" points="407.32,-129.3 417.32,-125.8 407.32,-122.3 407.32,-129.3"/>
</g>
<!-- TutorialModalComponent -->
<g id="node4" class="node">
<title>TutorialModalComponent</title>
<polygon fill="#ffffb3" stroke="black" points="186.48,-84.8 23.52,-84.8 23.52,-48.8 186.48,-48.8 186.48,-84.8"/>
<text text-anchor="middle" x="105" y="-62.6" font-family="Times,serif" font-size="14.00">TutorialModalComponent</text>
</g>
<!-- TutorialModalComponent&#45;&gt;AppModule -->
<g id="edge4" class="edge">
<title>TutorialModalComponent&#45;&gt;AppModule</title>
<path fill="none" stroke="black" d="M105,-85.08C105,-106.12 105,-137.8 105,-137.8 105,-137.8 407,-137.8 407,-137.8"/>
<polygon fill="black" stroke="black" points="407,-141.3 417,-137.8 407,-134.3 407,-141.3"/>
</g>
<!-- AppComponent  -->
<g id="node7" class="node">
<title>AppComponent </title>
<polygon fill="#80b1d3" stroke="black" points="513.44,-214.8 404.56,-214.8 404.56,-178.8 513.44,-178.8 513.44,-214.8"/>
<text text-anchor="middle" x="459" y="-192.6" font-family="Times,serif" font-size="14.00">AppComponent </text>
</g>
<!-- AppModule&#45;&gt;AppComponent  -->
<g id="edge6" class="edge">
<title>AppModule&#45;&gt;AppComponent </title>
<path fill="none" stroke="black" stroke-dasharray="1,5" d="M459,-149.91C459,-149.91 459,-168.79 459,-168.79"/>
<polygon fill="black" stroke="black" points="455.5,-168.79 459,-178.79 462.5,-168.79 455.5,-168.79"/>
</g>
<!-- AppRoutingModule -->
<g id="node6" class="node">
<title>AppRoutingModule</title>
<polygon fill="#8dd3c7" stroke="black" points="810.28,-84.8 807.28,-88.8 786.28,-88.8 783.28,-84.8 681.72,-84.8 681.72,-48.8 810.28,-48.8 810.28,-84.8"/>
<text text-anchor="middle" x="746" y="-62.6" font-family="Times,serif" font-size="14.00">AppRoutingModule</text>
</g>
<!-- AppRoutingModule&#45;&gt;AppModule -->
<g id="edge5" class="edge">
<title>AppRoutingModule&#45;&gt;AppModule</title>
<path fill="none" stroke="black" d="M746,-85.08C746,-106.12 746,-137.8 746,-137.8 746,-137.8 510.73,-137.8 510.73,-137.8"/>
<polygon fill="black" stroke="black" points="510.73,-134.3 500.73,-137.8 510.73,-141.3 510.73,-134.3"/>
</g>
</g>
</svg>
