<?xml version="1.0" encoding="UTF-8" standalone="no"?>
<!DOCTYPE svg PUBLIC "-//W3C//DTD SVG 1.1//EN"
 "http://www.w3.org/Graphics/SVG/1.1/DTD/svg11.dtd">
<!-- Generated by graphviz version 5.0.0 (20220707.1540)
 -->
<!-- Title: dependencies Pages: 1 -->
<svg width="416pt" height="174pt"
 viewBox="0.00 0.00 416.00 173.80" xmlns="http://www.w3.org/2000/svg" xmlns:xlink="http://www.w3.org/1999/xlink">
<g id="graph0" class="graph" transform="scale(1 1) rotate(0) translate(4 169.8)">
<title>dependencies</title>
<polygon fill="white" stroke="transparent" points="-4,4 -4,-169.8 412,-169.8 412,4 -4,4"/>
<text text-anchor="middle" x="204" y="-8.2" font-family="sans-serif" font-size="14.00">dependencies</text>
<g id="clust1" class="cluster">
<title>cluster_OrderConfirmPageModule</title>
<polygon fill="none" stroke="black" stroke-dasharray="1,5" points="8,-32.8 8,-157.8 400,-157.8 400,-32.8 8,-32.8"/>
</g>
<g id="clust2" class="cluster">
<title>cluster_OrderConfirmPageModule_declarations</title>
<polygon fill="none" stroke="black" points="252,-40.8 252,-92.8 392,-92.8 392,-40.8 252,-40.8"/>
</g>
<g id="clust4" class="cluster">
<title>cluster_OrderConfirmPageModule_imports</title>
<polygon fill="none" stroke="black" points="16,-40.8 16,-92.8 244,-92.8 244,-40.8 16,-40.8"/>
</g>
<!-- OrderConfirmPage -->
<g id="node1" class="node">
<title>OrderConfirmPage</title>
<polygon fill="#ffffb3" stroke="black" points="383.8,-84.8 260.2,-84.8 260.2,-48.8 383.8,-48.8 383.8,-84.8"/>
<text text-anchor="middle" x="322" y="-62.6" font-family="Times,serif" font-size="14.00">OrderConfirmPage</text>
</g>
<!-- OrderConfirmPageModule -->
<g id="node2" class="node">
<title>OrderConfirmPageModule</title>
<polygon fill="#8dd3c7" stroke="black" points="302.36,-149.8 299.36,-153.8 278.36,-153.8 275.36,-149.8 135.64,-149.8 135.64,-113.8 302.36,-113.8 302.36,-149.8"/>
<text text-anchor="middle" x="219" y="-127.6" font-family="Times,serif" font-size="14.00">OrderConfirmPageModule</text>
</g>
<!-- OrderConfirmPage&#45;&gt;OrderConfirmPageModule -->
<g id="edge1" class="edge">
<title>OrderConfirmPage&#45;&gt;OrderConfirmPageModule</title>
<path fill="none" stroke="black" d="M281.39,-84.91C281.39,-84.91 281.39,-103.79 281.39,-103.79"/>
<polygon fill="black" stroke="black" points="277.89,-103.79 281.39,-113.79 284.89,-103.79 277.89,-103.79"/>
</g>
<!-- OrderConfirmPageRoutingModule -->
<g id="node3" class="node">
<title>OrderConfirmPageRoutingModule</title>
<polygon fill="#8dd3c7" stroke="black" points="235.97,-84.8 232.97,-88.8 211.97,-88.8 208.97,-84.8 24.03,-84.8 24.03,-48.8 235.97,-48.8 235.97,-84.8"/>
<text text-anchor="middle" x="130" y="-62.6" font-family="Times,serif" font-size="14.00">OrderConfirmPageRoutingModule</text>
</g>
<!-- OrderConfirmPageRoutingModule&#45;&gt;OrderConfirmPageModule -->
<g id="edge2" class="edge">
<title>OrderConfirmPageRoutingModule&#45;&gt;OrderConfirmPageModule</title>
<path fill="none" stroke="black" d="M185.78,-84.91C185.78,-84.91 185.78,-103.79 185.78,-103.79"/>
<polygon fill="black" stroke="black" points="182.28,-103.79 185.78,-113.79 189.28,-103.79 182.28,-103.79"/>
</g>
</g>
</svg>
