<?xml version="1.0" encoding="UTF-8" standalone="no"?>
<!DOCTYPE svg PUBLIC "-//W3C//DTD SVG 1.1//EN"
 "http://www.w3.org/Graphics/SVG/1.1/DTD/svg11.dtd">
<!-- Generated by graphviz version 5.0.0 (20220707.1540)
 -->
<!-- Title: dependencies Pages: 1 -->
<svg width="334pt" height="174pt"
 viewBox="0.00 0.00 334.00 173.80" xmlns="http://www.w3.org/2000/svg" xmlns:xlink="http://www.w3.org/1999/xlink">
<g id="graph0" class="graph" transform="scale(1 1) rotate(0) translate(4 169.8)">
<title>dependencies</title>
<polygon fill="white" stroke="transparent" points="-4,4 -4,-169.8 330,-169.8 330,4 -4,4"/>
<text text-anchor="middle" x="163" y="-8.2" font-family="sans-serif" font-size="14.00">dependencies</text>
<g id="clust1" class="cluster">
<title>cluster_SignupPageModule</title>
<polygon fill="none" stroke="black" stroke-dasharray="1,5" points="8,-32.8 8,-157.8 318,-157.8 318,-32.8 8,-32.8"/>
</g>
<g id="clust2" class="cluster">
<title>cluster_SignupPageModule_declarations</title>
<polygon fill="none" stroke="black" points="212,-40.8 212,-92.8 310,-92.8 310,-40.8 212,-40.8"/>
</g>
<g id="clust4" class="cluster">
<title>cluster_SignupPageModule_imports</title>
<polygon fill="none" stroke="black" points="16,-40.8 16,-92.8 204,-92.8 204,-40.8 16,-40.8"/>
</g>
<!-- SignupPage -->
<g id="node1" class="node">
<title>SignupPage</title>
<polygon fill="#ffffb3" stroke="black" points="302.39,-84.8 219.61,-84.8 219.61,-48.8 302.39,-48.8 302.39,-84.8"/>
<text text-anchor="middle" x="261" y="-62.6" font-family="Times,serif" font-size="14.00">SignupPage</text>
</g>
<!-- SignupPageModule -->
<g id="node2" class="node">
<title>SignupPageModule</title>
<polygon fill="#8dd3c7" stroke="black" points="241.44,-149.8 238.44,-153.8 217.44,-153.8 214.44,-149.8 114.56,-149.8 114.56,-113.8 241.44,-113.8 241.44,-149.8"/>
<text text-anchor="middle" x="178" y="-127.6" font-family="Times,serif" font-size="14.00">SignupPageModule</text>
</g>
<!-- SignupPage&#45;&gt;SignupPageModule -->
<g id="edge1" class="edge">
<title>SignupPage&#45;&gt;SignupPageModule</title>
<path fill="none" stroke="black" d="M230.39,-84.91C230.39,-84.91 230.39,-103.79 230.39,-103.79"/>
<polygon fill="black" stroke="black" points="226.89,-103.79 230.39,-113.79 233.89,-103.79 226.89,-103.79"/>
</g>
<!-- SignupPageRoutingModule -->
<g id="node3" class="node">
<title>SignupPageRoutingModule</title>
<polygon fill="#8dd3c7" stroke="black" points="195.56,-84.8 192.56,-88.8 171.56,-88.8 168.56,-84.8 24.44,-84.8 24.44,-48.8 195.56,-48.8 195.56,-84.8"/>
<text text-anchor="middle" x="110" y="-62.6" font-family="Times,serif" font-size="14.00">SignupPageRoutingModule</text>
</g>
<!-- SignupPageRoutingModule&#45;&gt;SignupPageModule -->
<g id="edge2" class="edge">
<title>SignupPageRoutingModule&#45;&gt;SignupPageModule</title>
<path fill="none" stroke="black" d="M155.28,-84.91C155.28,-84.91 155.28,-103.79 155.28,-103.79"/>
<polygon fill="black" stroke="black" points="151.78,-103.79 155.28,-113.79 158.78,-103.79 151.78,-103.79"/>
</g>
</g>
</svg>
